<svg xmlns="http://www.w3.org/2000/svg" version="1.1" xmlns:xlink="http://www.w3.org/1999/xlink" xmlns:svgjs="http://svgjs.dev/svgjs" width="1920" height="1080" preserveAspectRatio="none" viewBox="0 0 1920 1080"><g mask="url(&quot;#SvgjsMask1058&quot;)" fill="none"><rect width="1920" height="1080" x="0" y="0" fill="rgba(71, 40, 136, 1)"></rect><path d="M0,809.277C152.787,814.729,304.983,755.545,423.462,658.92C535.619,567.451,566.724,417.511,636.11,290.502C711.954,151.672,846.451,35.908,850.22,-122.243C854.166,-287.836,790.516,-471.468,656.59,-568.938C524.79,-664.86,335.144,-562.838,179.273,-610.549C20.459,-659.161,-83,-861.115,-248.393,-845.948C-412.074,-830.938,-550.493,-686.191,-620.023,-537.253C-684.917,-398.247,-612.319,-239.793,-602.851,-86.677C-595.527,31.763,-602.369,146.265,-570.687,260.624C-533.946,393.243,-503.679,534.002,-404.475,629.376C-295.902,733.757,-150.514,803.906,0,809.277" fill="#2e1a58"></path><path d="M1920 1818.472C2093.841 1847.531 2277.784 1961.2939999999999 2434.342 1880.3319999999999 2590.1059999999998 1799.781 2635.657 1596.403 2678.323 1426.314 2715.8450000000003 1276.732 2686.54 1125.565 2661.859 973.337 2637.624 823.86 2631.215 664 2535.679 546.511 2438.9700000000003 427.57899999999995 2291.966 350.072 2139.825 331.345 1997.377 313.81100000000004 1870.468 402.249 1734.393 447.88199999999995 1604.349 491.49199999999996 1461.56 502.972 1358.4189999999999 593.3879999999999 1247.614 690.523 1159.5 821.81 1141.067 968.006 1122.752 1113.267 1195.508 1249.941 1259.005 1381.866 1321.347 1511.392 1385.502 1645.833 1505.446 1725.059 1626.083 1804.743 1777.401 1794.635 1920 1818.472" fill="#6036b8"></path></g><defs><mask id="SvgjsMask1058"><rect width="1920" height="1080" fill="#ffffff"></rect></mask></defs></svg>